<svg width="25" height="25" viewBox="0 0 25 25" fill="none" xmlns="http://www.w3.org/2000/svg">
<g clip-path="url(#clip0)">
<path d="M20.8793 20.6717H17.3296V15.1014C17.3296 13.7732 17.3018 12.0662 15.4733 12.0662C13.6223 12.0662 13.3403 13.5069 13.3403 15.0032V20.6709H9.78608V9.21769H13.2001V10.7799H13.2458C13.7228 9.87769 14.8831 8.92895 16.6141 8.92895C20.2148 8.92895 20.8831 11.2997 20.8831 14.3822V20.6709L20.8793 20.6717ZM5.77058 7.65244C5.49928 7.65254 5.23063 7.59912 4.98002 7.49523C4.72941 7.39135 4.50175 7.23904 4.31009 7.04703C4.11843 6.85502 3.96653 6.62709 3.8631 6.37628C3.75967 6.12548 3.70673 5.85674 3.70733 5.58544C3.70777 5.17711 3.82928 4.77807 4.0565 4.43879C4.28371 4.09951 4.60643 3.83521 4.98384 3.67933C5.36125 3.52344 5.7764 3.48296 6.17682 3.563C6.57723 3.64305 6.94492 3.84002 7.2334 4.12902C7.52187 4.41802 7.71818 4.78607 7.7975 5.18663C7.87681 5.58719 7.83558 6.00227 7.67901 6.3794C7.52244 6.75653 7.25756 7.07876 6.91786 7.30536C6.57817 7.53195 6.17891 7.65274 5.77058 7.65244V7.65244ZM7.55108 20.6717H3.98933V9.21844H7.55108V20.6717ZM22.6613 0.218445H2.20433C1.22708 0.218445 0.434326 0.991695 0.434326 1.94869V22.4889C0.434326 23.4459 1.22708 24.2192 2.20433 24.2192H22.6576C23.6333 24.2192 24.4343 23.4459 24.4343 22.4889V1.94869C24.4343 0.991695 23.6333 0.218445 22.6576 0.218445H22.6613Z" fill="#562C2C"/>
</g>
<defs>
<clipPath id="clip0">
<rect width="24" height="24" fill="white" transform="translate(0.434326 0.218445)"/>
</clipPath>
</defs>
</svg>
