<svg width="25" height="25" viewBox="0 0 25 25" fill="none" xmlns="http://www.w3.org/2000/svg">
<g clip-path="url(#clip0)">
<path d="M24.3866 4.82817C23.4884 5.22305 22.5369 5.48383 21.5629 5.60217C22.5897 4.98589 23.3584 4.01843 23.7266 2.87892C22.7554 3.44217 21.6984 3.84224 20.5976 4.06317C19.8574 3.27226 18.8768 2.74776 17.8081 2.57104C16.7393 2.39432 15.6421 2.57527 14.6867 3.0858C13.7313 3.59633 12.9711 4.4079 12.524 5.39461C12.0769 6.38131 11.968 7.48798 12.2141 8.54292C8.12437 8.35167 4.49887 6.38667 2.07412 3.41817C1.63273 4.16883 1.40188 5.02461 1.40587 5.89542C1.40527 6.70494 1.60458 7.50209 1.9861 8.21607C2.36762 8.93005 2.91955 9.53877 3.59287 9.98817C2.81259 9.96458 2.04931 9.75448 1.36687 9.37542V9.43467C1.36663 10.5709 1.75928 11.6723 2.47826 12.5522C3.19725 13.4321 4.19834 14.0363 5.31187 14.2624C4.89007 14.3751 4.45547 14.4328 4.01887 14.4342C3.70312 14.4342 3.40162 14.4034 3.10087 14.3479C3.41777 15.3257 4.03163 16.1804 4.857 16.793C5.68238 17.4055 6.67821 17.7456 7.70587 17.7657C5.96468 19.1293 3.81621 19.869 1.60462 19.8664C1.2129 19.868 0.821444 19.8459 0.432373 19.8004C2.68844 21.246 5.31215 22.0134 7.99162 22.0114C17.0419 22.0114 21.9874 14.5152 21.9874 8.02317C21.9874 7.81617 21.9874 7.60542 21.9716 7.39392C22.939 6.70058 23.7728 5.83763 24.4324 4.84692L24.3866 4.82817Z" fill="#562C2C"/>
</g>
<defs>
<clipPath id="clip0">
<rect width="24" height="24" fill="white" transform="translate(0.434326 0.258423)"/>
</clipPath>
</defs>
</svg>
