<svg width="282" height="278" viewBox="0 0 282 278" fill="none" xmlns="http://www.w3.org/2000/svg">
<g clip-path="url(#clip0)">
<rect x="1.31616" y="100.469" width="280.119" height="177.531" fill="#E5E5E5"/>
<rect x="191.013" y="152.046" width="73.3235" height="74.6872" rx="6" fill="white"/>
<rect x="191.013" y="152.046" width="73.3235" height="74.6872" rx="6" fill="white"/>
<rect x="191.013" y="152.046" width="73.3235" height="74.6872" rx="6" fill="white"/>
<rect x="103.739" y="152.046" width="73.3235" height="74.6872" rx="6" fill="white"/>
<rect x="103.739" y="152.046" width="73.3235" height="74.6872" rx="6" fill="white"/>
<rect x="103.739" y="152.046" width="73.3235" height="74.6872" rx="6" fill="white"/>
<rect x="18.2551" y="152.046" width="73.3235" height="74.6872" rx="6" fill="white"/>
<rect x="18.2551" y="152.046" width="73.3235" height="74.6872" rx="6" fill="white"/>
<rect x="18.2551" y="152.046" width="73.3235" height="74.6872" rx="6" fill="white"/>
<rect width="280.119" height="15.4189" transform="matrix(1 0 0 -1 1.31616 100.469)" fill="white"/>
<path d="M205.391 51.6534C205.357 62.4456 204.628 73.2244 203.21 83.9226C203.16 84.2983 203.106 84.674 203.056 85.0497H102.224C101.925 84.6786 101.632 84.3028 101.348 83.9226C100.399 82.6643 99.5096 81.3697 98.6922 80.0299C94.7632 73.5751 92.9387 66.0023 94.6955 60.7606L94.727 60.6792C95.1061 59.5314 95.7077 58.47 96.4972 57.5559C100.544 52.9389 108.781 53.6586 116.273 57.325C109.53 50.0102 104.143 40.7626 103.691 32.4837C103.249 24.4085 107.43 18.6146 111.973 13.6852C112.123 13.5223 112.272 13.3639 112.421 13.2054C112.493 13.1239 112.57 13.047 112.642 12.9655C116.187 9.20854 120.324 5.50136 126.343 5.91329C132.946 6.36594 140.293 11.8656 145.46 18.2932C150.626 24.7163 154.076 32.0266 157.571 39.1603C161.071 46.2895 164.856 53.5998 170.442 59.6788C162.869 50.1868 156.745 39.373 154.446 28.8354C152.148 18.2977 154.062 8.1539 160.737 3.14761C162.764 1.67425 165.113 0.708834 167.588 0.332141C167.877 0.28235 168.17 0.241612 168.468 0.2054C174.669 -0.53692 182.089 1.5724 188.42 6.67827C195.393 12.3002 200.252 20.6651 202.691 28.6181C205.129 36.5711 205.427 44.239 205.391 51.6534Z" fill="#0E9594"/>
<path d="M139.607 85.0497H137.679C137.064 84.6695 136.447 84.2938 135.827 83.9226C135.443 83.6827 135.055 83.4518 134.666 83.2164C128.249 79.3372 121.793 75.618 115.297 72.0587C108.808 68.4963 102.287 65.1 95.734 61.8696C95.5604 61.7949 95.4183 61.6617 95.3325 61.493C95.2467 61.3243 95.2226 61.1308 95.2644 60.9462C95.2712 60.922 95.2819 60.899 95.2961 60.8783C95.3863 60.7063 95.5896 60.6338 95.8877 60.7787C96.6915 61.177 97.4998 61.5753 98.3036 61.9827C104.874 65.2689 111.418 68.7211 117.935 72.3393C124.447 75.956 130.923 79.7341 137.362 83.6736C137.498 83.7551 137.633 83.8411 137.769 83.9226C138.383 84.2983 138.993 84.674 139.607 85.0497Z" fill="white"/>
<path d="M164.467 85.0499H163.275C163.004 84.6742 162.738 84.2985 162.467 83.9228C156.099 75.078 149.733 66.2333 143.369 57.3885C132.946 42.9083 122.526 28.4281 112.109 13.9479C112.048 13.87 112.001 13.7809 111.974 13.6854C111.883 13.364 112.118 13.1739 112.421 13.2056C112.548 13.2231 112.671 13.2677 112.78 13.3364C112.889 13.4051 112.982 13.4963 113.053 13.6039C118.897 21.7244 124.739 29.8419 130.58 37.9564C140.948 52.3642 151.315 66.7704 161.681 81.1752C162.34 82.0895 163 83.0084 163.659 83.9228C163.93 84.2985 164.201 84.6742 164.467 85.0499Z" fill="white"/>
<path d="M190.99 77.9612C190.94 79.9755 190.818 81.9581 190.655 83.9226C190.624 84.2983 190.592 84.674 190.561 85.0497H189.31C189.346 84.674 189.382 84.2983 189.413 83.9226C189.662 81.0845 189.834 78.2147 189.843 75.268C189.83 67.0984 188.991 58.9513 187.336 50.9517C185.577 42.3383 183.073 33.8947 179.853 25.7166C176.473 17.0912 172.409 8.75088 167.701 0.775703C167.612 0.645783 167.572 0.488688 167.588 0.33211C167.638 -0.0254819 168.112 -0.134117 168.468 0.205369C168.539 0.271974 168.6 0.348158 168.649 0.431693C169.232 1.42299 169.804 2.41731 170.365 3.41464C174.902 11.4352 178.794 19.8055 182.003 28.4461C185.06 36.652 187.397 45.1092 188.989 53.7219C190.48 61.7121 191.15 69.8342 190.99 77.9612Z" fill="white"/>
<path d="M278.058 83.9226H3.93781C2.89371 83.9236 1.89265 84.3397 1.15437 85.0798C0.416087 85.8198 0.000917138 86.8232 0 87.8697V274.053C0.000915944 275.099 0.416087 276.103 1.15437 276.843C1.89265 277.583 2.89371 277.999 3.93781 278H278.058C278.627 278 279.19 277.876 279.706 277.637C280.223 277.398 280.682 277.049 281.052 276.615C281.083 276.581 281.112 276.545 281.138 276.506C281.373 276.218 281.563 275.896 281.702 275.551C281.9 275.077 282.002 274.567 282 274.053V87.8697C281.999 86.8225 281.583 85.8185 280.844 85.0784C280.105 84.3383 279.102 83.9225 278.058 83.9226ZM280.876 274.053C280.876 274.604 280.714 275.142 280.41 275.601C280.14 276.005 279.774 276.335 279.345 276.561C278.947 276.767 278.505 276.874 278.058 276.873H3.93781C3.19191 276.872 2.47682 276.575 1.94939 276.046C1.42196 275.517 1.12526 274.801 1.12435 274.053V87.8697C1.12525 87.1221 1.42196 86.4053 1.94939 85.8767C2.47682 85.348 3.19191 85.0506 3.93781 85.0497H278.058C278.804 85.0496 279.52 85.3465 280.049 85.8753C280.577 86.404 280.875 87.1214 280.876 87.8697V274.053Z" fill="#3F3D56"/>
<path d="M281.435 99.7422H0.561157V100.871H281.435V99.7422Z" fill="#3F3D56"/>
<path d="M10.1301 95.7704C11.9953 95.7704 13.5073 94.2549 13.5073 92.3853C13.5073 90.5158 11.9953 89.0002 10.1301 89.0002C8.26485 89.0002 6.75281 90.5158 6.75281 92.3853C6.75281 94.2549 8.26485 95.7704 10.1301 95.7704Z" fill="#3F3D56"/>
<path d="M19.8396 95.7704C21.7048 95.7704 23.2169 94.2549 23.2169 92.3853C23.2169 90.5158 21.7048 89.0002 19.8396 89.0002C17.9744 89.0002 16.4624 90.5158 16.4624 92.3853C16.4624 94.2549 17.9744 95.7704 19.8396 95.7704Z" fill="#3F3D56"/>
<path d="M29.5492 95.7704C31.4144 95.7704 32.9265 94.2549 32.9265 92.3853C32.9265 90.5158 31.4144 89.0002 29.5492 89.0002C27.684 89.0002 26.172 90.5158 26.172 92.3853C26.172 94.2549 27.684 95.7704 29.5492 95.7704Z" fill="#3F3D56"/>
<path d="M125.082 195.668C121.705 193.464 120.025 188.342 120.852 183.658C121.68 178.974 124.797 174.94 128.533 173.2C130.35 172.379 132.343 172.023 134.331 172.165C136.32 172.307 138.242 172.941 139.926 174.012C143.352 176.112 148.198 177.262 149.825 181.464C151.075 184.692 149.489 191.249 147.806 194.385C146.352 197.095 143.588 198.335 140.991 198.874C138.118 199.461 135.153 199.423 132.296 198.762C129.439 198.102 126.757 196.834 124.431 195.044L125.082 195.668Z" fill="#2F2E41"/>
<path d="M123.32 220.546L120.62 225.212L120.263 225.828L119.744 226.733H111.782L112.32 225.828L113.71 223.479L116.953 217.993L120.624 219.464L123.32 220.546Z" fill="#FFB8B8"/>
<path d="M111.186 226.733L109.732 225.828L109.551 225.715L118.678 209.044C119.071 208.322 119.602 207.686 120.241 207.171C120.881 206.657 121.616 206.275 122.404 206.047C123.398 205.75 124.452 205.711 125.466 205.934C126.057 206.059 126.626 206.273 127.155 206.568C127.372 206.687 127.582 206.82 127.782 206.966C128.554 207.508 129.188 208.225 129.634 209.057C130.164 210.032 130.426 211.13 130.393 212.24C130.36 213.35 130.032 214.431 129.444 215.372L125.926 221.007L122.919 225.828L122.354 226.733H111.186Z" fill="#2F2E41"/>
<path d="M134.635 201.585C140.761 201.585 145.727 196.607 145.727 190.467C145.727 184.327 140.761 179.35 134.635 179.35C128.509 179.35 123.543 184.327 123.543 190.467C123.543 196.607 128.509 201.585 134.635 201.585Z" fill="#FFB8B8"/>
<path d="M145.769 226.733H120.837L120.95 226.412C120.886 226.217 120.828 226.023 120.773 225.828C120.715 225.624 120.665 225.416 120.62 225.212C120.215 223.317 120.216 221.358 120.624 219.464C122.002 212.683 127.498 207.174 127.498 207.174C127.593 207.102 127.687 207.034 127.782 206.966C128.6 206.366 129.487 205.868 130.424 205.481C134.507 203.784 138.788 204.467 141.664 205.346C142.666 205.649 143.645 206.023 144.595 206.464C144.929 206.622 145.11 206.722 145.11 206.722L145.395 215.417L145.738 225.828L145.769 226.733Z" fill="#F2542D"/>
<path d="M157.303 225.828L155.397 216.114L153.474 206.319C153.394 205.914 153.193 205.543 152.899 205.255C152.605 204.967 152.231 204.774 151.825 204.703L147.797 204.006L144.049 203.358C143.687 203.293 143.315 203.328 142.972 203.46C142.629 203.591 142.328 203.815 142.102 204.105C141.821 204.457 141.666 204.894 141.664 205.346C141.664 205.624 141.721 205.9 141.831 206.156C143.787 210.728 143.823 217.965 143.326 225.828C143.304 226.127 143.286 226.43 143.263 226.733H157.484L157.303 225.828Z" fill="#2F2E41"/>
<path d="M130.424 205.481C130.341 205.152 130.178 204.848 129.949 204.598C129.72 204.347 129.432 204.158 129.112 204.047C128.792 203.935 128.449 203.906 128.114 203.96C127.78 204.015 127.464 204.152 127.195 204.359L125.466 205.934L118.385 212.398C118.164 212.596 117.991 212.842 117.879 213.117C117.079 215.032 115.522 218.812 113.711 223.479C113.417 224.239 113.114 225.022 112.803 225.828C112.694 226.127 112.577 226.43 112.46 226.733H124.129C124.224 226.43 124.319 226.127 124.413 225.828C124.933 224.185 125.439 222.573 125.926 221.007C127.353 216.458 128.64 212.325 129.634 209.057C129.909 208.152 130.161 207.316 130.388 206.55C130.494 206.203 130.507 205.834 130.424 205.481Z" fill="#2F2E41"/>
<path d="M159.922 226.733H160.677L160.573 226.48L160.297 225.828L156.048 215.72L155.397 216.114L150.177 219.278L152.855 225.828L153.225 226.733H157.484H159.922Z" fill="#FFB8B8"/>
<path d="M155.614 207.704C155.039 206.195 153.905 204.968 152.448 204.279C150.991 203.589 149.324 203.492 147.797 204.006C147.602 204.07 147.41 204.146 147.223 204.232C146.154 204.71 145.242 205.484 144.595 206.463C144.331 206.854 144.115 207.275 143.949 207.717C143.656 208.484 143.518 209.302 143.542 210.124C143.566 210.945 143.752 211.753 144.089 212.502L145.395 215.417L150.064 225.828L150.47 226.733H159.922L160.573 226.48L162.262 225.828L162.497 225.737L155.614 207.704Z" fill="#2F2E41"/>
<path d="M143.346 177.698C143.733 177.815 144.147 177.8 144.524 177.656C144.902 177.513 145.221 177.248 145.434 176.904C145.635 176.554 145.753 176.162 145.78 175.758C145.806 175.355 145.74 174.95 145.586 174.576C145.272 173.83 144.776 173.174 144.143 172.669C143.425 172.017 142.551 171.564 141.606 171.352C141.134 171.25 140.646 171.251 140.174 171.355C139.703 171.459 139.259 171.664 138.873 171.954C138.494 172.255 138.213 172.662 138.066 173.123C137.919 173.585 137.913 174.08 138.049 174.545C138.336 175.38 139.114 175.939 139.89 176.355C141.432 177.18 143.132 177.664 144.875 177.776L143.346 177.698Z" fill="#2F2E41"/>
<path d="M145.504 190.135C143.721 190.381 143.95 189.472 143.236 187.816C142.521 186.159 141.565 184.193 139.773 184.026C138.304 183.888 137.094 185.065 135.904 185.939C133.783 187.497 130.925 188.259 128.467 187.325C126.008 186.39 124.3 183.453 125.233 180.989C125.523 180.309 125.95 179.696 126.486 179.187C127.023 178.679 127.658 178.286 128.352 178.034C129.744 177.538 131.223 177.332 132.697 177.429C135.976 177.534 139.193 178.359 142.119 179.846C144.139 180.875 146.105 182.346 146.871 184.483C147.637 186.62 148.141 189.623 145.951 190.201L145.504 190.135Z" fill="#2F2E41"/>
<path d="M142.435 171.821C141.553 170.283 142.281 168.173 143.723 167.146C145.165 166.118 147.1 166.018 148.821 166.43C150.523 166.859 152.082 167.73 153.342 168.954C154.603 170.179 155.52 171.714 156.001 173.406C156.732 176.095 156.297 178.983 156.916 181.701C157.246 183.149 157.868 184.515 158.744 185.713C159.62 186.912 160.731 187.918 162.01 188.669C163.288 189.421 164.707 189.902 166.178 190.084C167.649 190.265 169.142 190.143 170.564 189.724C172.417 189.179 174.299 187.853 174.481 185.927C174.673 188.139 174.17 190.356 173.042 192.267C171.914 194.179 170.218 195.689 168.192 196.586C165.805 197.584 163.143 197.649 160.557 197.582C158.873 197.539 157.15 197.437 155.595 196.784C154.52 196.293 153.553 195.591 152.752 194.72C151.951 193.849 151.331 192.827 150.929 191.713C150.138 189.474 149.924 187.07 150.308 184.726C150.562 182.903 151.068 181.115 151.21 179.28C151.351 177.444 151.083 175.484 149.954 174.032C148.824 172.579 146.668 171.838 145.063 172.733C144.417 173.092 143.897 173.68 143.196 173.912C142.495 174.144 141.502 173.736 141.565 172.999L142.435 171.821Z" fill="#2F2E41"/>
<path d="M218.124 226.733L218.21 225.828L220.757 199.266C221.592 198.611 222.489 198.04 223.435 197.56C228.678 194.912 233.736 196.179 236.473 197.275C237.198 197.559 237.899 197.903 238.568 198.302L240.059 225.828L240.108 226.733H218.124Z" fill="#F2542D"/>
<path d="M230.052 192.197C236.178 192.197 241.144 187.22 241.144 181.08C241.144 174.94 236.178 169.962 230.052 169.962C223.927 169.962 218.961 174.94 218.961 181.08C218.961 187.22 223.927 192.197 230.052 192.197Z" fill="#FFB8B8"/>
<path d="M239.052 187.859C239.876 186.988 240.424 185.891 240.624 184.707C240.825 183.523 240.67 182.307 240.179 181.212C239.687 180.117 238.882 179.193 237.866 178.558C236.849 177.923 235.667 177.605 234.47 177.645C232.937 177.697 231.491 178.326 230.027 178.787C227.809 179.544 225.442 179.757 223.125 179.41C220.793 179.048 218.69 177.802 217.247 175.931C215.874 174.041 215.446 171.419 216.416 169.292C217.535 166.837 220.149 165.485 222.609 164.386C223.601 163.888 224.66 163.539 225.753 163.35C226.301 163.259 226.861 163.282 227.399 163.418C227.938 163.554 228.442 163.8 228.881 164.141C229.572 164.736 229.977 165.632 230.729 166.148C231.576 166.73 232.676 166.714 233.697 166.817C235.997 167.048 238.172 167.975 239.933 169.475C241.695 170.975 242.959 172.977 243.557 175.215C244.156 177.453 244.06 179.82 243.284 182.002C242.507 184.184 241.086 186.078 239.21 187.43L239.052 187.859Z" fill="#2F2E41"/>
<path d="M225.088 202.159L223.435 197.56L223.332 197.273C223.283 197.137 223.204 197.014 223.101 196.914C222.997 196.813 222.873 196.737 222.736 196.692C222.599 196.647 222.453 196.633 222.31 196.653C222.168 196.672 222.031 196.724 221.911 196.804L220.035 198.058C220.035 198.058 208 198.058 207.033 205.296C207.02 205.409 207.002 205.536 206.988 205.671C206.987 205.678 206.986 205.684 206.984 205.69C206.862 206.165 204.59 214.964 202.639 225.828C202.585 226.127 202.531 226.43 202.477 226.733H228.629V226.733C229.48 215.82 229.003 205.674 225.088 202.159Z" fill="#2F2E41"/>
<path d="M256.284 225.828C254.857 214.683 252.816 205.671 252.816 205.671C252.798 205.535 252.78 205.409 252.766 205.296C251.805 198.058 239.77 198.058 239.77 198.058L237.894 196.804C237.774 196.724 237.637 196.673 237.495 196.653C237.352 196.634 237.206 196.647 237.069 196.692C236.932 196.738 236.807 196.814 236.704 196.915C236.601 197.015 236.522 197.139 236.473 197.275L234.716 202.159C230.801 205.674 230.325 215.82 231.175 226.733L231.176 226.733H256.397C256.361 226.43 256.321 226.126 256.284 225.828Z" fill="#2F2E41"/>
<path d="M44.4489 200.452L41.7664 225.828L41.6716 226.733H34.4146C34.5003 226.439 34.5861 226.136 34.6765 225.828C36.7358 218.748 39.5402 208.414 39.2375 205.676C38.7634 201.403 42.0827 199.977 42.0827 199.977L42.2904 200.018L44.4489 200.452Z" fill="#F2542D"/>
<path d="M56.1529 192.62C62.2786 192.62 67.2446 187.643 67.2446 181.503C67.2446 175.362 62.2786 170.385 56.1529 170.385C50.0271 170.385 45.0612 175.362 45.0612 181.503C45.0612 187.643 50.0271 192.62 56.1529 192.62Z" fill="#A0616A"/>
<path d="M70.5106 221.346C69.9513 222.38 69.493 223.465 69.1423 224.587C69.0114 224.986 68.885 225.402 68.7675 225.828C68.6817 226.122 68.605 226.425 68.5282 226.733H39.2736C39.3144 226.434 39.3503 226.131 39.3911 225.828C40.8859 213.991 42.096 201.978 42.2903 200.018C42.3084 199.832 42.3174 199.737 42.3174 199.737C59.8484 190.476 72.6422 202.589 72.6422 202.589C72.6422 202.589 72.6602 202.675 72.6874 202.842C72.9674 204.535 74.3943 214.421 70.5106 221.346Z" fill="#F2542D"/>
<path d="M69.1424 224.587L67.1915 220.396L67.6656 203.775L72.6874 202.842L72.8636 202.811C75.4593 204.323 77.4679 206.671 78.5626 209.474C79.5381 211.918 81.3941 219.269 82.9613 225.828C83.0336 226.131 83.1057 226.434 83.178 226.733H70.1404L69.7203 225.828L69.1424 224.587Z" fill="#F2542D"/>
<path d="M86.985 152.046H22.8491C21.4734 152.048 20.1546 152.596 19.1818 153.571C18.2091 154.546 17.6618 155.868 17.6602 157.247V221.532C17.6618 222.911 18.2091 224.233 19.1818 225.208C20.1546 226.183 21.4734 226.731 22.8491 226.733H86.985C88.3609 226.732 89.6802 226.184 90.6531 225.209C91.6259 224.234 92.1729 222.911 92.1738 221.532V157.247C92.1729 155.868 91.6259 154.546 90.6531 153.57C89.6802 152.595 88.3609 152.047 86.985 152.046ZM91.2706 221.532C91.2696 222.671 90.8178 223.763 90.0143 224.569C89.2108 225.374 88.1213 225.827 86.985 225.828H22.8491C21.713 225.826 20.6239 225.373 19.8206 224.568C19.0172 223.763 18.5651 222.671 18.5634 221.532V157.247C18.5651 156.108 19.0172 155.017 19.8206 154.211C20.6239 153.406 21.713 152.953 22.8491 152.951H86.985C88.1213 152.952 89.2108 153.405 90.0143 154.211C90.8178 155.016 91.2696 156.108 91.2706 157.247V221.532ZM41.7664 225.828L41.6715 226.733H68.5282C68.6049 226.425 68.6816 226.122 68.7674 225.828H41.7664Z" fill="#3F3D56"/>
<path d="M173.064 152.046H108.928C107.552 152.048 106.234 152.596 105.261 153.571C104.288 154.546 103.741 155.868 103.739 157.247V221.532C103.741 222.911 104.288 224.233 105.261 225.208C106.234 226.183 107.552 226.731 108.928 226.733H173.064C174.44 226.732 175.759 226.184 176.732 225.209C177.705 224.234 178.252 222.911 178.253 221.532V157.247C178.252 155.868 177.705 154.546 176.732 153.57C175.759 152.595 174.44 152.047 173.064 152.046ZM177.35 221.532C177.349 222.671 176.897 223.763 176.093 224.569C175.29 225.374 174.2 225.827 173.064 225.828H108.928C107.792 225.826 106.703 225.373 105.9 224.568C105.096 223.763 104.644 222.671 104.642 221.532V157.247C104.644 156.108 105.096 155.017 105.9 154.211C106.703 153.406 107.792 152.953 108.928 152.951H173.064C174.2 152.952 175.29 153.405 176.093 154.211C176.897 155.016 177.349 156.108 177.35 157.247V221.532ZM120.773 225.828C120.828 226.022 120.886 226.217 120.95 226.412L120.837 226.733H143.263C143.286 226.43 143.304 226.127 143.326 225.828H120.773Z" fill="#3F3D56"/>
<path d="M259.148 152.046H195.012C193.636 152.047 192.316 152.595 191.344 153.57C190.371 154.546 189.824 155.868 189.823 157.247V221.532C189.824 222.911 190.371 224.234 191.344 225.209C192.316 226.184 193.636 226.732 195.012 226.733H259.148C260.523 226.731 261.842 226.183 262.815 225.208C263.788 224.233 264.335 222.911 264.336 221.532V157.247C264.335 155.868 263.788 154.546 262.815 153.571C261.842 152.596 260.523 152.048 259.148 152.046ZM263.433 221.532C263.431 222.671 262.979 223.763 262.176 224.568C261.373 225.373 260.284 225.826 259.148 225.828H195.012C193.875 225.827 192.786 225.374 191.982 224.569C191.179 223.763 190.727 222.671 190.726 221.532V157.247C190.727 156.108 191.179 155.016 191.982 154.211C192.786 153.405 193.875 152.952 195.012 152.951H259.148C260.284 152.953 261.373 153.406 262.176 154.212C262.979 155.017 263.431 156.108 263.433 157.247V221.532ZM228.696 225.828C228.674 226.127 228.651 226.43 228.629 226.733H248.088C248.124 226.434 248.165 226.131 248.201 225.828H228.696Z" fill="#3F3D56"/>
<path d="M215.512 252.987H66.4847C65.5266 252.987 64.6076 252.605 63.9301 251.926C63.2526 251.247 62.8719 250.326 62.8719 249.365C62.8719 248.405 63.2526 247.484 63.9301 246.805C64.6076 246.126 65.5266 245.744 66.4847 245.744H215.512C216.47 245.744 217.389 246.126 218.067 246.805C218.744 247.484 219.125 248.405 219.125 249.365C219.125 250.326 218.744 251.247 218.067 251.926C217.389 252.605 216.47 252.987 215.512 252.987Z" fill="#CCCCCC"/>
<path d="M173.739 133.035H108.257C107.299 133.035 106.38 132.653 105.703 131.974C105.025 131.295 104.645 130.374 104.645 129.414C104.645 128.453 105.025 127.532 105.703 126.853C106.38 126.174 107.299 125.792 108.257 125.792H173.739C174.697 125.792 175.616 126.174 176.294 126.853C176.971 127.532 177.352 128.453 177.352 129.414C177.352 130.374 176.971 131.295 176.294 131.974C175.616 132.653 174.697 133.035 173.739 133.035Z" fill="#F2542D"/>
<path d="M61.4582 191.189C61.8338 191.56 62.3304 191.783 62.8568 191.817C63.3833 191.85 63.9042 191.693 64.324 191.373C66.9381 189.43 69.233 187.013 70.5912 184.064C72.1474 180.685 72.321 176.538 70.4447 173.327C68.8585 170.612 66.0577 168.86 63.2662 167.422C62.1823 166.808 61.0148 166.357 59.8007 166.083C58.5736 165.811 57.2895 166.019 56.2098 166.664C55.6816 166.996 55.2654 167.479 55.0157 168.052C54.7659 168.624 54.6941 169.259 54.8096 169.873C53.4687 168.34 51.7513 167.184 49.8276 166.521C48.6162 166.046 47.2898 165.95 46.0227 166.245C44.2513 166.748 42.9581 168.326 42.2507 170.03C41.6787 171.326 41.4812 172.757 41.6806 174.16C41.7856 174.858 42.0356 175.527 42.4145 176.122C42.7934 176.717 43.2927 177.226 43.8802 177.616C45.3448 178.524 47.2132 178.459 48.8952 178.088C50.5772 177.717 52.2053 177.071 53.9199 176.908C55.6344 176.745 57.5437 177.173 58.5871 178.547C59.3219 179.514 59.5106 180.777 59.6756 181.982L60.5335 188.246C60.6037 189.152 60.8346 190.039 61.2154 190.863C61.2813 190.982 61.363 191.092 61.4582 191.189Z" fill="#2F2E41"/>
</g>
<defs>
<clipPath id="clip0">
<rect width="282" height="278" fill="white"/>
</clipPath>
</defs>
</svg>
