<svg width="25" height="25" viewBox="0 0 25 25" fill="none" xmlns="http://www.w3.org/2000/svg">
<g clip-path="url(#clip0)">
<path d="M24.4994 12.573C24.4994 5.946 19.1264 0.572998 12.4994 0.572998C5.87239 0.572998 0.49939 5.946 0.49939 12.573C0.49939 18.563 4.88739 23.527 10.6244 24.427V16.042H7.57739V12.572H10.6244V9.93C10.6244 6.923 12.4164 5.261 15.1574 5.261C16.4694 5.261 17.8434 5.496 17.8434 5.496V8.449H16.3294C14.8384 8.449 14.3734 9.374 14.3734 10.323V12.573H17.7014L17.1694 16.043H14.3734V24.428C20.1114 23.527 24.4994 18.562 24.4994 12.573Z" fill="white"/>
</g>
<defs>
<clipPath id="clip0">
<rect width="24" height="24" fill="white" transform="translate(0.49939 0.5)"/>
</clipPath>
</defs>
</svg>
