<svg width="25" height="25" viewBox="0 0 25 25" fill="none" xmlns="http://www.w3.org/2000/svg">
<g clip-path="url(#clip0)">
<path d="M12.4994 0.5C9.23939 0.5 8.83239 0.515 7.55239 0.572C6.27439 0.632 5.40439 0.833 4.63939 1.13C3.85039 1.436 3.18039 1.847 2.51339 2.514C1.84639 3.181 1.43439 3.85 1.12939 4.64C0.83239 5.405 0.63039 6.275 0.57139 7.553C0.51139 8.833 0.49939 9.24 0.49939 12.5C0.49939 15.76 0.51439 16.167 0.57139 17.447C0.63139 18.724 0.83239 19.595 1.12939 20.36C1.43068 21.1609 1.90299 21.8864 2.51339 22.486C3.11267 23.0968 3.83829 23.5692 4.63939 23.87C5.40539 24.166 6.27539 24.369 7.55239 24.428C8.83239 24.488 9.23939 24.5 12.4994 24.5C15.7594 24.5 16.1664 24.485 17.4464 24.428C18.7234 24.368 19.5944 24.166 20.3594 23.87C21.1601 23.5683 21.8855 23.0961 22.4854 22.486C23.0964 21.8869 23.5688 21.1612 23.8694 20.36C24.1654 19.595 24.3684 18.724 24.4274 17.447C24.4874 16.167 24.4994 15.76 24.4994 12.5C24.4994 9.24 24.4844 8.833 24.4274 7.553C24.3674 6.276 24.1654 5.404 23.8694 4.64C23.568 3.83922 23.0957 3.11373 22.4854 2.514C21.8865 1.90264 21.1608 1.43019 20.3594 1.13C19.5944 0.833 18.7234 0.631 17.4464 0.572C16.1664 0.512 15.7594 0.5 12.4994 0.5ZM12.4994 2.66C15.7024 2.66 16.0844 2.676 17.3494 2.731C18.5194 2.786 19.1544 2.98 19.5764 3.146C20.1384 3.363 20.5364 3.623 20.9584 4.042C21.3774 4.462 21.6374 4.861 21.8544 5.423C22.0184 5.845 22.2144 6.48 22.2674 7.65C22.3244 8.916 22.3374 9.296 22.3374 12.5C22.3374 15.704 22.3224 16.085 22.2634 17.35C22.2024 18.52 22.0074 19.155 21.8424 19.577C21.6472 20.0978 21.3403 20.5695 20.9434 20.959C20.5555 21.3563 20.0841 21.6624 19.5634 21.855C19.1434 22.019 18.4984 22.215 17.3284 22.268C16.0544 22.325 15.6794 22.338 12.4694 22.338C9.25839 22.338 8.88339 22.323 7.61039 22.264C6.43939 22.203 5.79439 22.008 5.37439 21.843C4.85329 21.6502 4.38207 21.343 3.99539 20.944C3.59397 20.5587 3.2861 20.0867 3.09539 19.564C2.93039 19.144 2.73639 18.499 2.67539 17.329C2.63039 16.069 2.61439 15.68 2.61439 12.485C2.61439 9.289 2.63039 8.899 2.67539 7.624C2.73639 6.454 2.93039 5.81 3.09539 5.39C3.30539 4.82 3.57439 4.43 3.99539 4.009C4.41439 3.59 4.80539 3.32 5.37439 3.111C5.79439 2.945 6.42539 2.75 7.59539 2.69C8.87039 2.645 9.24539 2.63 12.4544 2.63L12.4994 2.66V2.66ZM12.4994 6.338C11.6902 6.338 10.8889 6.49739 10.1413 6.80705C9.39369 7.11672 8.71439 7.57061 8.1422 8.14281C7.57 8.715 7.11611 9.3943 6.80644 10.1419C6.49677 10.8895 6.33739 11.6908 6.33739 12.5C6.33739 13.3092 6.49677 14.1105 6.80644 14.8581C7.11611 15.6057 7.57 16.285 8.1422 16.8572C8.71439 17.4294 9.39369 17.8833 10.1413 18.1929C10.8889 18.5026 11.6902 18.662 12.4994 18.662C14.1337 18.662 15.701 18.0128 16.8566 16.8572C18.0122 15.7016 18.6614 14.1343 18.6614 12.5C18.6614 10.8657 18.0122 9.29841 16.8566 8.14281C15.701 6.98721 14.1337 6.338 12.4994 6.338V6.338ZM12.4994 16.5C10.2894 16.5 8.49939 14.71 8.49939 12.5C8.49939 10.29 10.2894 8.5 12.4994 8.5C14.7094 8.5 16.4994 10.29 16.4994 12.5C16.4994 14.71 14.7094 16.5 12.4994 16.5ZM20.3454 6.095C20.3315 6.46762 20.1737 6.82036 19.9052 7.07907C19.6366 7.33778 19.2783 7.48233 18.9054 7.48233C18.5325 7.48233 18.1741 7.33778 17.9056 7.07907C17.6371 6.82036 17.4793 6.46762 17.4654 6.095C17.4654 5.71309 17.6171 5.34682 17.8872 5.07677C18.1572 4.80671 18.5235 4.655 18.9054 4.655C19.2873 4.655 19.6536 4.80671 19.9236 5.07677C20.1937 5.34682 20.3454 5.71309 20.3454 6.095V6.095Z" fill="white"/>
</g>
<defs>
<clipPath id="clip0">
<rect width="24" height="24" fill="white" transform="translate(0.49939 0.5)"/>
</clipPath>
</defs>
</svg>
