<svg width="25" height="25" viewBox="0 0 25 25" fill="none" xmlns="http://www.w3.org/2000/svg">
<g clip-path="url(#clip0)">
<path d="M20.9464 20.952H17.3924V15.383C17.3924 14.055 17.3654 12.346 15.5404 12.346C13.6874 12.346 13.4044 13.791 13.4044 15.285V20.952H9.85039V9.5H13.2644V11.061H13.3104C13.7874 10.161 14.9474 9.211 16.6804 9.211C20.2814 9.211 20.9474 11.581 20.9474 14.666V20.952H20.9464ZM5.83639 7.933C5.56527 7.93313 5.29678 7.87979 5.0463 7.77604C4.79581 7.67229 4.56825 7.52015 4.37663 7.32835C4.18501 7.13654 4.03309 6.90883 3.92958 6.65825C3.82607 6.40766 3.773 6.13912 3.77339 5.868C3.77359 5.45978 3.89483 5.06078 4.12179 4.72147C4.34875 4.38216 4.67123 4.11777 5.04845 3.96173C5.42568 3.80569 5.8407 3.76502 6.24104 3.84485C6.64137 3.92469 7.00905 4.12144 7.29756 4.41024C7.58608 4.69903 7.78248 5.0669 7.86193 5.46731C7.94137 5.86773 7.9003 6.28271 7.74389 6.65978C7.58749 7.03685 7.32279 7.35908 6.98325 7.58571C6.64372 7.81234 6.24461 7.9332 5.83639 7.933V7.933ZM7.61839 20.952H4.05439V9.5H7.61839V20.952ZM22.7244 0.5H2.27039C1.29139 0.5 0.49939 1.274 0.49939 2.229V22.771C0.49939 23.727 1.29139 24.5 2.27039 24.5H22.7214C23.6994 24.5 24.4994 23.727 24.4994 22.771V2.229C24.4994 1.274 23.6994 0.5 22.7214 0.5H22.7244Z" fill="white"/>
</g>
<defs>
<clipPath id="clip0">
<rect width="24" height="24" fill="white" transform="translate(0.49939 0.5)"/>
</clipPath>
</defs>
</svg>
