<svg width="25" height="25" viewBox="0 0 25 25" fill="none" xmlns="http://www.w3.org/2000/svg">
<g clip-path="url(#clip0)">
<path d="M24.4524 5.07009C23.5539 5.46569 22.602 5.72683 21.6274 5.84509C22.6535 5.22834 23.4218 4.26113 23.7904 3.12209C22.8394 3.67709 21.7854 4.08109 20.6634 4.30609C19.9231 3.51452 18.9423 2.98951 17.873 2.81259C16.8038 2.63567 15.7061 2.81674 14.7503 3.32768C13.7946 3.83862 13.0342 4.65084 12.5874 5.63821C12.1406 6.62558 12.0323 7.73286 12.2794 8.78809C8.18939 8.59509 4.56639 6.63009 2.13939 3.66209C1.69818 4.4119 1.46805 5.26711 1.47339 6.13709C1.47339 7.84709 2.34339 9.35009 3.66139 10.2331C2.88025 10.2082 2.11636 9.99702 1.43339 9.61709V9.67709C1.43295 10.8135 1.82566 11.915 2.5449 12.7948C3.26413 13.6747 4.2656 14.2786 5.37939 14.5041C4.65769 14.6975 3.9018 14.7265 3.16739 14.5891C3.48351 15.5671 4.09705 16.422 4.9224 17.0346C5.74775 17.6471 6.74374 17.9868 7.77139 18.0061C6.03092 19.372 3.88187 20.1134 1.66939 20.1111C1.27939 20.1111 0.89039 20.0881 0.49939 20.0441C2.7551 21.4884 5.3779 22.2551 8.05639 22.2531C17.1094 22.2531 22.0544 14.7571 22.0544 8.26809C22.0544 8.05809 22.0544 7.84809 22.0394 7.63809C23.0054 6.94295 23.8386 6.07991 24.4994 5.09009L24.4524 5.07009Z" fill="white"/>
</g>
<defs>
<clipPath id="clip0">
<rect width="24" height="24" fill="white" transform="translate(0.49939 0.5)"/>
</clipPath>
</defs>
</svg>
